Coordinates
version=1
nRows=26
nColumns=24
inDegrees=yes

Units are S.I. units (second, meters, Newtons, ...)
Angles are in degrees.

endheader
time	pelvis_tilt	pelvis_list	pelvis_rotation	pelvis_tx	pelvis_ty	pelvis_tz	hip_flexion_r	hip_adduction_r	hip_rotation_r	knee_angle_r	ankle_angle_r	subtalar_angle_r	mtp_angle_r	hip_flexion_l	hip_adduction_l	hip_rotation_l	knee_angle_l	ankle_angle_l	subtalar_angle_l	mtp_angle_l	lumbar_extension	lumbar_bending	lumbar_rotation
      4.91000000	     49.99294091	      1.08785466	     -1.39203316	      0.75647472	      0.96307184	     -0.27738035	     16.17600621	    -13.85318205	      6.57269601	    -62.89653500	      7.55748043	     16.41585942	    -33.12594439	     16.25686977	    -10.13621302	      6.00858080	    -75.60613366	      0.99882480	     12.60976358	    -30.07999595	      0.00000000	      0.00000000	      0.00000000
      4.92000000	     50.00400029	      1.08269626	     -1.40719178	      0.75647365	      0.96315177	     -0.27737801	     16.15072812	    -13.84456000	      6.57118502	    -62.88553262	      7.57138954	     16.39437890	    -32.96092064	     16.20875329	    -10.07971794	      5.66663629	    -75.18085616	      1.04833192	     12.70994988	    -29.93692701	      0.00000000	      0.00000000	      0.00000000
      4.93000000	     50.00755149	      1.07601117	     -1.41890102	      0.75647264	      0.96322866	     -0.27736299	     16.12966806	    -13.83083279	      6.56227333	    -62.87256825	      7.57160631	     16.36447393	    -32.74931189	     16.16358000	    -10.02448163	      5.26295526	    -74.70184098	      1.10020285	     12.77793888	    -29.72085912	      0.00000000	      0.00000000	      0.00000000
      4.94000000	     50.00448648	      1.06610107	     -1.42372118	      0.75646942	      0.96329579	     -0.27730149	     16.11458452	    -13.81015520	      6.54508270	    -62.85925162	      7.54838243	     16.32904536	    -32.51386355	     16.12384095	     -9.96513307	      4.79897742	    -74.17354898	      1.13257369	     12.81651269	    -29.44471263	      0.00000000	      0.00000000	      0.00000000
      4.95000000	     49.99818770	      1.05267696	     -1.42271589	      0.75645928	      0.96334970	     -0.27720307	     16.10599060	    -13.78356208	      6.52277436	    -62.84850641	      7.49494965	     16.29211634	    -32.29106795	     16.08907499	     -9.89636864	      4.28930523	    -73.60577125	      1.12445898	     12.83836171	    -29.13975536	      0.00000000	      0.00000000	      0.00000000
      4.96000000	     49.99537789	      1.03828065	     -1.42160528	      0.75643919	      0.96339869	     -0.27712493	     16.10141304	    -13.75550368	      6.50196410	    -62.84389329	      7.41237901	     16.25732413	    -32.13011951	     16.05608496	     -9.81597304	      3.75987448	    -73.01056283	      1.06588926	     12.86278874	    -28.85495511	      0.00000000	      0.00000000	      0.00000000
      4.97000000	     50.00551941	      1.02642299	     -1.42636779	      0.75641227	      0.96344603	     -0.27709627	     16.09365292	    -13.73178022	      6.48967187	    -62.84763008	      7.31442479	     16.22607228	    -32.08939218	     16.01965216	     -9.72366504	      3.23782673	    -72.39696521	      0.96783836	     12.90955587	    -28.65297808	      0.00000000	      0.00000000	      0.00000000
      4.98000000	     50.03710071	      1.01906761	     -1.43847378	      0.75639008	      0.96347239	     -0.27708589	     16.07032035	    -13.71663194	      6.48925406	    -62.85688115	      7.23059153	     16.19595128	    -32.23038483	     15.97169252	     -9.61815047	      2.74011691	    -71.76625391	      0.86730987	     12.99248426	    -28.60310951	      0.00000000	      0.00000000	      0.00000000
      4.99000000	     50.09295397	      1.01669733	     -1.45465980	      0.75638879	      0.96347166	     -0.27706357	     16.01536190	    -13.71180092	      6.49783798	    -62.85931641	      7.20542434	     16.16013617	    -32.60961943	     15.90020341	     -9.49681945	      2.26920659	    -71.10852387	      0.82450639	     13.11531018	    -28.77191972	      0.00000000	      0.00000000	      0.00000000
      5.00000000	     50.16819628	      1.01939065	     -1.47047111	      0.75640414	      0.96351779	     -0.27703338	     15.91274925	    -13.71768863	      6.50664812	    -62.83057709	      7.29237601	     16.10838279	    -33.26956918	     15.79024192	     -9.35744331	      1.81657949	    -70.40128540	      0.91162432	     13.27108478	    -29.21292962	      0.00000000	      0.00000000	      0.00000000
      5.01000000	     50.25251962	      1.02735514	     -1.48386918	      0.75639351	      0.96375445	     -0.27700699	     15.75164694	    -13.73382826	      6.50353102	    -62.73680617	      7.54186717	     16.02982059	    -34.23015011	     15.62724901	     -9.19891614	      1.36962173	    -69.61236009	      1.19489534	     13.44497584	    -29.95683721	      0.00000000	      0.00000000	      0.00000000
      5.02000000	     50.33538092	      1.04112455	     -1.49642413	      0.75632680	      0.96421585	     -0.27698768	     15.53066882	    -13.75750921	      6.47675170	    -62.54425329	      7.98535308	     15.91695749	    -35.48248752	     15.40147080	     -9.02047875	      0.91790684	    -68.70933613	      1.71349404	     13.61915797	    -31.00402848	      0.00000000	      0.00000000	      0.00000000
      5.03000000	     50.41061998	      1.06085164	     -1.51166921	      0.75626284	      0.96463012	     -0.27697177	     15.25838602	    -13.78330495	      6.42007029	    -62.23492469	      8.61988757	     15.76947725	    -36.98651120	     15.11195407	     -8.82132378	      0.45741354	    -67.67493906	      2.46118434	     13.77793421	    -32.32104188	      0.00000000	      0.00000000	      0.00000000
      5.04000000	     50.47867504	      1.08475926	     -1.53223177	      0.75629951	      0.96462538	     -0.27695020	     14.95007216	    -13.80600367	      6.33788171	    -61.82228343	      9.39981085	     15.59604399	    -38.67338296	     14.76940902	     -8.60241045	     -0.00723109	    -66.52264506	      3.37819345	     13.91145424	    -33.84222211	      0.00000000	      0.00000000	      0.00000000
      5.05000000	     50.54679999	      1.10838050	     -1.55811543	      0.75641091	      0.96430748	     -0.27691357	     14.62354062	    -13.82474557	      6.24633567	    -61.35620074	     10.24210207	     15.41286118	    -40.45278809	     14.39734974	     -8.36916468	     -0.46327938	    -65.30200356	      4.35999369	     14.01716414	    -35.47683493	      0.00000000	      0.00000000	      0.00000000
      5.06000000	     50.62568704	      1.12675432	     -1.58714002	      0.75646276	      0.96421644	     -0.27686657	     14.29656545	    -13.84252208	      6.16633153	    -60.90784382	     11.04741064	     15.23917989	    -42.22385129	     14.02805676	     -8.13103558	     -0.89459693	    -64.08519241	      5.28418439	     14.09913013	    -37.12052241	      0.00000000	      0.00000000	      0.00000000
      5.07000000	     50.72313794	      1.13803784	     -1.61643171	      0.75642200	      0.96455269	     -0.27682864	     13.98631609	    -13.86098579	      6.11204159	    -60.54040067	     11.72918114	     15.09157845	    -43.88727899	     13.69334477	     -7.89709130	     -1.28861892	    -62.93997862	      6.04612603	     14.16614512	    -38.66859511	      0.00000000	      0.00000000	      0.00000000
      5.08000000	     50.83971011	      1.14382844	     -1.64344581	      0.75637629	      0.96500015	     -0.27680579	     13.70907598	    -13.87807213	      6.08509924	    -60.28578858	     12.23667705	     14.97952750	    -45.35586845	     13.41670692	     -7.67205165	     -1.64032216	    -61.90643195	      6.58696087	     14.22957576	    -40.02794632	      0.00000000	      0.00000000	      0.00000000
      5.09000000	     50.96771328	      1.14653786	     -1.66655497	      0.75637975	      0.96526746	     -0.27678648	     13.47812670	    -13.89054879	      6.07775992	    -60.13968276	     12.56227011	     14.90401042	    -46.56109981	     13.20991227	     -7.45585010	     -1.95117766	    -60.98949600	      6.90275054	     14.30134276	    -41.12482809	      0.00000000	      0.00000000	      0.00000000
      5.10000000	     51.09198542	      1.14749615	     -1.68552564	      0.75641163	      0.96536148	     -0.27676407	     13.30066254	    -13.89690395	      6.07978918	    -60.07173632	     12.73280253	     14.85937293	    -47.45500327	     13.07221991	     -7.24561736	     -2.22578247	    -60.16698961	      7.03409087	     14.39199080	    -41.90734368	      0.00000000	      0.00000000	      0.00000000
      5.11000000	     51.19325615	      1.14692260	     -1.70182187	      0.75643029	      0.96541104	     -0.27674046	     13.17671915	    -13.89772776	      6.08377241	    -60.04260250	     12.79091279	     14.83722245	    -48.00819341	     12.99236605	     -7.03813161	     -2.46921162	    -59.40586705	      7.04285032	     14.50886168	    -42.34353863	      0.00000000	      0.00000000	      0.00000000
      5.12000000	     51.25600586	      1.14483319	     -1.71898381	      0.75641814	      0.96548372	     -0.27671618	     13.10148321	    -13.89417036	      6.08706424	    -60.02057815	     12.77425063	     14.83068473	    -48.20603394	     12.95549722	     -6.83180404	     -2.68598389	    -58.67821847	      6.98558360	     14.65460906	    -42.41728508	      0.00000000	      0.00000000	      0.00000000
      5.13000000	     51.27684154	      1.14149966	     -1.74224454	      0.75638454	      0.96559000	     -0.27668660	     13.06973228	    -13.88638733	      6.09139520	    -59.99314027	     12.69970481	     14.83751906	    -48.04503522	     12.95183663	     -6.62772241	     -2.87998773	    -57.97237245	      6.89272433	     14.82639338	    -42.12429486	      0.00000000	      0.00000000	      0.00000000
      5.14000000	     51.26581772	      1.13712454	     -1.77609814	      0.75633962	      0.96571472	     -0.27664609	     13.07965340	    -13.87311824	      6.10174733	    -59.97100158	     12.55731760	     14.86117651	    -47.53103471	     12.98011123	     -6.42946812	     -3.05449578	    -57.29847930	      6.75979458	     15.01612318	    -41.46993243	      0.00000000	      0.00000000	      0.00000000
      5.15000000	     51.24017407	      1.13141274	     -1.82074333	      0.75630038	      0.96579101	     -0.27659068	     13.13335582	    -13.85240630	      6.12519121	    -59.98438418	     12.31540990	     14.90959473	    -46.67980736	     13.04525661	     -6.24196463	     -3.21199054	    -56.68724006	      6.55269595	     15.21200311	    -40.46956738	      0.00000000	      0.00000000	      0.00000000
      5.16000000	     51.21603114	      1.12361514	     -1.87006222	      0.75630590	      0.96572082	     -0.27652451	     13.23373592	    -13.82317889	      6.16948160	    -60.07243696	     11.93539595	     14.99208142	    -45.51975761	     13.15471915	     -6.07027629	     -3.35370273	    -56.18003896	      6.22485083	     15.40124474	    -39.15124881	      0.00000000	      0.00000000	      0.00000000
